<mxfile host="app.diagrams.net" modified="2021-09-06T07:51:39.079Z" agent="5.0 (Macintosh; Intel Mac OS X 10_15_7) AppleWebKit/537.36 (KHTML, like Gecko) Chrome/91.0.4472.114 Safari/537.36" etag="KhGCFJmqlsbYwzdVT-Z2" version="14.9.7" type="github">
  <diagram id="D5t4wDGakYh_ATZfuAy0" name="第 1 页">
    <mxGraphModel dx="1411" dy="845" grid="1" gridSize="10" guides="1" tooltips="1" connect="1" arrows="1" fold="1" page="1" pageScale="1" pageWidth="827" pageHeight="1169" math="0" shadow="0">
      <root>
        <mxCell id="0" />
        <mxCell id="1" parent="0" />
        <mxCell id="1Q2iT69vG-S7J7Te85cG-1" value="开始" style="strokeWidth=2;html=1;shape=mxgraph.flowchart.start_1;whiteSpace=wrap;" vertex="1" parent="1">
          <mxGeometry x="280" y="130" width="100" height="60" as="geometry" />
        </mxCell>
        <mxCell id="1Q2iT69vG-S7J7Te85cG-2" value="策略读取更新" style="rounded=1;whiteSpace=wrap;html=1;absoluteArcSize=1;arcSize=14;strokeWidth=2;" vertex="1" parent="1">
          <mxGeometry x="450" y="310" width="110" height="60" as="geometry" />
        </mxCell>
        <mxCell id="1Q2iT69vG-S7J7Te85cG-3" value="用户搜索输入" style="rounded=1;whiteSpace=wrap;html=1;absoluteArcSize=1;arcSize=14;strokeWidth=2;" vertex="1" parent="1">
          <mxGeometry x="280" y="230" width="110" height="60" as="geometry" />
        </mxCell>
      </root>
    </mxGraphModel>
  </diagram>
</mxfile>
